<svg xmlns="http://www.w3.org/2000/svg" width="860" height="220" viewBox="0 0 860 220">
  <defs>
    <style>
      .title { font-family: ui-monospace, Menlo, monospace; font-size: 14px; font-weight: 600; fill: #e6edf3; }
      .desc  { font-family: ui-monospace, Menlo, monospace; font-size: 12px; fill: #7d8590; }
    </style>
  </defs>

  <rect width="860" height="220" rx="12" fill="#0a0e14"/>
  <rect x="0.5" y="0.5" width="859" height="219" rx="12" fill="none" stroke="#21262d"/>

  <!-- 4 cards em linha -->
  <g transform="translate(24,24)">
    <rect width="190" height="80" rx="10" fill="#151b23" stroke="#21262d"/>
    <g transform="translate(16,16)" fill="#00ff9d">
      <path d="M9.4 16.6L4.8 12l4.6-4.6L8 6l-6 6 6 6zm5.2 0l4.6-4.6-4.6-4.6L16 6l6 6-6 6z"/>
    </g>
    <text class="title" x="52" y="30">Web</text>
    <text class="desc"  x="16" y="56">APIs e aplicações</text>
    <text class="desc"  x="16" y="70">full-stack</text>
  </g>

  <g transform="translate(234,24)">
    <rect width="190" height="80" rx="10" fill="#151b23" stroke="#21262d"/>
    <g transform="translate(16,16)" fill="#00d9ff">
      <path d="M11.99 18.54l-7.37-5.73L3 14.07l9 7 9-7-1.63-1.27-7.38 5.74zM12 16l7.36-5.73L21 9l-9-7-9 7 1.63 1.27L12 16z"/>
    </g>
    <text class="title" x="52" y="30">Sistemas</text>
    <text class="desc"  x="16" y="56">Arquitetura e</text>
    <text class="desc"  x="16" y="70">escalabilidade</text>
  </g>

  <g transform="translate(444,24)">
    <rect width="190" height="80" rx="10" fill="#151b23" stroke="#21262d"/>
    <g transform="translate(16,16)" fill="#bd93f9">
      <path d="M11 21h-1l1-7H7.5c-.58 0-.57-.32-.38-.66.19-.34.05-.08.07-.12C8.48 10.94 10.42 7.54 13 3h1l-1 7h3.5c.49 0 .56.33.47.51l-.07.15C12.96 17.55 11 21 11 21z"/>
    </g>
    <text class="title" x="52" y="30">DevOps</text>
    <text class="desc"  x="16" y="56">CI/CD e</text>
    <text class="desc"  x="16" y="70">infraestrutura</text>
  </g>

  <g transform="translate(654,24)">
    <rect width="182" height="80" rx="10" fill="#151b23" stroke="#21262d"/>
    <g transform="translate(16,16)" fill="#ffbd2e">
      <path d="M12 2C6.48 2 2 6.48 2 12s4.48 10 10 10 10-4.48 10-10S17.52 2 12 2zm1 17h-2v-2h2v2zm2.07-7.75l-.9.92C13.45 12.9 13 13.5 13 15h-2v-.5c0-1.1.45-2.1 1.17-2.83l1.24-1.26c.37-.36.59-.86.59-1.41 0-1.1-.9-2-2-2s-2 .9-2 2H8c0-2.21 1.79-4 4-4s4 1.79 4 4c0 .88-.36 1.68-.93 2.25z"/>
    </g>
    <text class="title" x="52" y="30">Mentoria</text>
    <text class="desc"  x="16" y="56">Consultoria</text>
    <text class="desc"  x="16" y="70">técnica</text>
  </g>

  <!-- Rodapé do card -->
  <line x1="24" y1="128" x2="836" y2="128" stroke="#21262d"/>
  <text class="desc" x="24" y="154">Disponível para projetos  ·  Brasil  ·  Remoto</text>
  <text class="desc" x="24" y="180">contato@jarod.com.br  ·  linkedin.com/in/jarod-m-m-jr-5581b4287</text>
</svg>
